# xmcd
#
# Track frame offsets: 
#        150
#        11627
#        24265
#        35072
#        50000
#        61365
#        73565
#        85225
#        96485
#        110272
#        120295
#        134150
#        145627
#        158712
#
# Disc length: 2296 seconds
#
# Revision: 3
# Processed by: cddbd v1.5.2PL0 Copyright (c) Steve Scherf et al.
# Submitted via: ExactAudioCopy v1.3
#
DISCID=bd08f60e
DTITLE=Hubert Wolf und die Orig. Böhmerländer - Die größten Erfolge
DYEAR=1990
DGENRE=Folklore
TTITLE0=Mir san mir
TTITLE1=Der Schornsteinfeger von Eger
TTITLE2=Wien bleibt Wien
TTITLE3=Der schöste Stern
TTITLE4=Mareschka-Polka
TTITLE5=Das kleine Echo aus dem Bömerwald
TTITLE6=An der Eger ist der Frühling erwacht
TTITLE7=Deutschmeister-Regiments-Marsch
TTITLE8=Bömerländer Sonntag
TTITLE9=Lustige Musikanten
TTITLE10=Die Zeit mit dir
TTITLE11=So klar wie ein Bergsee
TTITLE12=Kuckucks-Polka
TTITLE13=Jeder Tag bringt neue Hoffnung
EXTD=
EXTT0=Mir san Mir
EXTT1=Der Schornsteinfeger von Eger
EXTT2=Wien bleibt Wien
EXTT3=Der Schönste Stern
EXTT4=Mareschka-Polka
EXTT5=Das kleine Echo aus dem Böhmerwald
EXTT6=An der Eger ist der Frühling erwacht
EXTT7=Deutschmeister-Regiments_Marsch
EXTT8=Böhmerländer Sonntag
EXTT9=Lustige Musikanten
EXTT10=Die Zeit mit Dir
EXTT11=So klar wie ein Bergsee
EXTT12=Kuckucks-Polka
EXTT13=Jeder Tag bringt neue Hoffnung
PLAYORDER=
